<?xml version="1.0" encoding="utf-8"?>
<!-- Generator: Adobe Illustrator 19.2.1, SVG Export Plug-In . SVG Version: 6.00 Build 0)  -->
<svg version="1.1" id="Layer_1" xmlns="http://www.w3.org/2000/svg" xmlns:xlink="http://www.w3.org/1999/xlink" x="0px" y="0px"
	 viewBox="0 0 283.5 283.5" style="enable-background:new 0 0 283.5 283.5;" xml:space="preserve">
<style type="text/css">
	.st0{fill:#F4792A;}
</style>
<g>
	<path d="M16.3,278.3V6.1h125.4c24.3,0,44.3,3.4,59.5,10.1c15.3,6.8,28.2,16.6,38.2,29.3c9.9,12.5,17.2,27.3,21.7,43.9
		c4.4,16.3,6.6,33.8,6.6,51.9c0,28.4-3.3,51-9.9,66.9c-6.6,16.1-16,29.7-27.8,40.6c-11.9,11-25,18.4-38.7,22.1
		c-18,4.8-34.7,7.3-49.4,7.3H16.3z M122.4,206.9c19.5,0,28.7-2.6,32.9-4.9c5.9-3.1,10.4-8.5,13.9-16.5c3.7-8.5,5.5-22.8,5.5-42.6
		c0-25.8-4-43.5-11.9-52.4c-7.7-8.7-21.2-13.1-40-13.1h-13.8v129.6H122.4z"/>
	<g>
		<path class="st0" d="M64.5,87.6c-12.4,12.1-26.5,22.8-42,32.1v89.5c20.3-31.9,44.4-62.4,72-90.7c1.6-1.7,1.7-2.3,1.7-2.5
			c0-0.2-0.1-0.8-1.7-2.2c-8.5-8.2-17.2-17-25.8-26.1c-1.5-1.6-2-1.6-2.1-1.6C66.6,86,66,86.1,64.5,87.6z"/>
		<path class="st0" d="M58.4,82.2c2.6-2.4,2.6-2.7,0.7-4.9C45.5,62.8,33.4,48.8,22.5,35.1v75C34.6,102.6,46.6,93.3,58.4,82.2z"/>
		<path class="st0" d="M22.5,12.3v9.4C34.5,37.4,47.7,53,62.4,69l0.1,0.1c1.7,1.9,3.4,3.8,4.2,4.2c0.8-0.5,2.5-2.5,4.2-4.5
			c14.8-17,26.6-35.8,35.3-56.7H22.5z"/>
		<path class="st0" d="M102.7,211.3v-89.4c0,0-0.1-0.1-0.1-0.1l-1,1c-0.6,0.6-1.3,1.3-1.9,2c-19.5,20.2-37.4,41.4-53,63.1
			c-9,12.6-17.1,24.8-24.2,36.8v47.4h72.7C94.9,252.6,96.7,231.9,102.7,211.3z"/>
		<path class="st0" d="M74.1,81.6c4,3.9,7.9,8,11.8,11.9c3.6,3.7,7.4,7.6,11.2,11.3c0.8,0.8,1.6,1.6,2.2,2.2
			c1.3,1.3,2.6,2.6,3.3,3.1c0.1-0.1,0.2-0.1,0.2-0.2V71.1h20c7.5,0,14.3,0.7,20.3,2c20.1-16.9,41.2-32.8,63.2-47.5
			c-2.4-1.3-4.9-2.6-7.5-3.7c-14.5-6.4-33.5-9.6-57-9.6h-26.5C105.4,36.7,91.7,58.5,73.8,78C72.3,79.7,72.3,79.8,74.1,81.6z"/>
		<path class="st0" d="M261.5,141.3c0-10.4-0.8-20.4-2.3-30.1c-30.4,1.6-55.7,7.5-78.8,18.2c0.3,4.3,0.5,8.7,0.5,13.5
			c0,14.4-1,25.9-2.9,34.8c20.9,17.3,41.8,33.8,62.6,49.4c4.4-6.4,8.2-13.5,11.4-21.2C258.4,190.6,261.5,169.1,261.5,141.3z"/>
		<path class="st0" d="M189.6,265c12.9-3.4,24.9-10.3,36.1-20.6c3.6-3.3,6.8-6.9,9.9-10.7c-21.1-15.9-41.1-31.6-60.1-47.4
			c-0.2,0.6-0.4,1.2-0.6,1.7c-4,9.3-9.6,15.8-16.7,19.5c-7.1,3.7-19,5.6-35.8,5.6H111c-5.4,18.5-8,38.1-7.8,59h38.5
			C156,272.1,172,269.7,189.6,265z"/>
		<path class="st0" d="M152.3,76.1c6.1,2.5,11.2,5.9,15.1,10.3c6.3,7.1,10.3,18.6,12.2,34.3c11.2-5.2,23.4-9.3,36.9-12.2
			c13.2-2.9,26.9-4.7,41.4-5.5c-0.8-4.1-1.7-8.1-2.8-12c-4.3-15.8-11.1-29.7-20.6-41.6c-5.9-7.5-12.8-13.8-20.7-19.1
			c-13.1,8.7-26.4,18.2-40.1,28.6C166.6,64.4,159.4,70.2,152.3,76.1z"/>
	</g>
</g>
</svg>
