<?xml version="1.0" encoding="utf-8"?>
<!-- Generator: Adobe Illustrator 19.2.1, SVG Export Plug-In . SVG Version: 6.00 Build 0)  -->
<svg version="1.1" id="Layer_1" xmlns="http://www.w3.org/2000/svg" xmlns:xlink="http://www.w3.org/1999/xlink" x="0px"
    y="0px" viewBox="0 0 283.5 283.5" style="enable-background:new 0 0 283.5 283.5;" xml:space="preserve">
    <style type="text/css">
        .st0 {
            fill: #4a8c0f;
        }
    </style>
    <g>
        <polygon points="32.8,278.6 32.8,6 124.5,6 124.5,203.3 250.8,203.3 250.8,278.6 	" />
        <g>
            <path class="st0" d="M111.1,70.5c-0.6,2.4-1.2,4.9-1.1,5.8c0.9,0.4,3.4,0.7,6,1c1.1,0.1,2.1,0.2,3.1,0.3V39.5
			c-2.8,10-5.5,20.2-8,30.8L111.1,70.5z" />
            <path class="st0" d="M88.7,123.8c2.2,0.4,2.8,0.1,3,0c0.1-0.1,0.5-0.5,0.9-2.6c2-11.5,4.3-23.4,7-35.4c0.5-2.1,0.2-2.5,0.2-2.6
			c0-0.1-0.4-0.5-2.4-0.9c-19.1-3.9-38-10.5-56.3-19.7c-0.9-0.5-1.8-1-2.8-1.4v55.9C55,118.5,71.8,120.7,88.7,123.8z" />
            <path class="st0" d="M110.2,84.6c-2.2-0.3-2.3-0.3-2.8,2.2c-1,5.4-2.1,10.9-3.2,16.2c-1,5-2.1,10.2-3,15.3
			c-0.2,1.1-0.4,2.2-0.6,3.1c-0.3,1.8-0.7,3.5-0.7,4.4c0.6,0.2,1.6,0.3,2.5,0.5c1.2,0.2,2.7,0.4,4.5,0.8c4.1,0.9,8.2,1.8,12.2,2.7
			V85.7C116.1,85.4,113.2,85,110.2,84.6z" />
            <path class="st0" d="M98.5,133.9c0,0-0.3,0.4-0.5,1.9c-1.8,13.6-3.9,27.4-5.8,39c-0.3,1.6,0,2,0,2.1c0.1,0.1,0.5,0.5,2.1,0.9
			c8.5,2.1,16.7,5,24.7,8.7V138c-6-1.4-12-2.7-18-3.9C99,133.7,98.6,133.9,98.5,133.9z" />
            <path class="st0" d="M38.2,51.8c0.6,0.3,1.1,0.6,1.7,0.9c16.6,9.4,36.1,16.7,58.3,21.7c3.4,0.8,3.7,0.6,4.3-2.1
			c5-22,10.5-42.1,16.6-60.6v-0.2H38.2V51.8z" />
            <path class="st0" d="M83.6,175.7c0.1,0,0.3,0,0.4,0c0,0,0-0.1,0-0.2l1-6.8c1.8-12,3.6-24,5.3-36c0-0.2,0-0.3,0-0.4l-1.3-0.2
			c-0.9-0.2-1.8-0.3-2.7-0.5c-16.1-2.8-32.2-4.9-48.2-6.3v51.5C52.4,174.2,67.5,173.6,83.6,175.7z" />
            <path class="st0" d="M245.4,208.7H154c3.4,2.8,6.8,5.7,10.1,8.9c13.7,13.1,26.2,28,38.2,45.7c2.2,3.2,4.3,6.5,6.4,9.9h36.6V208.7z
			" />
            <path class="st0" d="M195.7,268c-2.5-3.7-5-7.3-7.5-10.7c-15-20.4-30.5-36.2-47.4-48.6h-21.6v-13.4c-7.1-3.4-15.7-6.6-25.2-9.4
			c-2.2-0.6-2.7-0.4-2.8-0.4c0,0-0.4,0.4-0.7,2.8c-3.4,28.7-6,57.1-7.8,84.9h116.5C198,271.4,196.9,269.7,195.7,268z" />
            <path class="st0" d="M82.5,184.1c-0.2-0.3-0.8-0.7-3.2-1c-14.1-1.5-27.9-1-41.1,1.7v88.4h36.2c1.9-29.7,4.6-58.1,8.2-85.8
			C82.9,185.1,82.7,184.4,82.5,184.1z" />
        </g>
    </g>
</svg>