<?xml version="1.0" encoding="utf-8"?>
<!-- Generator: Adobe Illustrator 19.2.1, SVG Export Plug-In . SVG Version: 6.00 Build 0)  -->
<svg version="1.1" id="Layer_1" xmlns="http://www.w3.org/2000/svg" xmlns:xlink="http://www.w3.org/1999/xlink" x="0px"
    y="0px" viewBox="0 0 283.5 283.5" style="enable-background:new 0 0 283.5 283.5;" xml:space="preserve">
    <style type="text/css">
        .st0 {
            fill: #ddbb02;
        }

        .st1 {
            fill: #111111;
        }
    </style>
    <g>
        <polygon class="st1" points="205.8,260.3 205.8,125.6 171.3,260.3 111.3,260.3 77,125.7 77,260.3 9.1,260.3 9.1,24.1 110.3,24.1 141.5,145.1 
		172.4,24.1 273.6,24.1 273.6,260.3 	" />
        <g>
            <path class="st0"
                d="M123.1,178c0,0,0-0.1-0.1-0.2l-3.1-6.1c-5.5-10.7-10.9-21.5-16.4-32.2c-0.1-0.2-0.1-0.3-0.2-0.4l-1.2,0.6
			c-0.8,0.4-1.6,0.7-2.5,1.1c-4,1.9-7.8,3.9-11.8,5.8l11.9,46.7c6.9-5.5,14.5-10.7,23-15.2C122.9,178.1,123,178.1,123.1,178z" />
            <path class="st0"
                d="M71.6,98.4c-15.2,6-31.4,10.3-48.3,12.9c-2.9,0.4-5.9,0.8-8.8,1.2v68.8c18-12.7,37.1-24.4,57.1-35.1V98.4z" />
            <path class="st0" d="M67,29.4c5,15.5,10.8,31.3,17.5,47.8l0.1,0.2c0.9,2.3,1.9,4.6,2.4,5.3c0.9-0.2,3.2-1.4,5.4-2.6
			c8.1-4.4,15.7-9.3,23-14.6l-9.3-36H67z" />
            <path class="st0"
                d="M99.4,131.6c0.1-0.1,0.1-0.7-0.8-2.6c-5-10.4-9.9-21.4-14.7-32.7c-0.8-1.9-1.3-2.2-1.3-2.2
			c-0.1,0-0.6-0.2-2.5,0.6c-1.6,0.7-3.3,1.4-5,2.1l10.7,41.8c3.7-1.8,7.4-3.7,11.2-5.5C99.1,132.4,99.4,131.8,99.4,131.6z" />
            <path class="st0"
                d="M71.6,155.3c-14.6,7.9-28.7,16.4-42,25.3c-5.2,3.5-10.2,7-15.1,10.5V255H53c5-10.9,11.1-21.7,18.5-32V155.3z" />
            <path class="st0"
                d="M211.1,165.7c0.3,0,0.6,0.1,0.9,0.1c18.3,2.6,36.7,7.4,56.1,14.6V86.8c-18.5,3.3-37.4,7.5-57.1,12.9V165.7z" />
            <path class="st0" d="M110.9,135.9c0,0-0.1,0.5,0.7,1.9c6.4,12,12.5,24.4,17.8,34.9c0.7,1.4,1.1,1.7,1.2,1.7c0.1,0,0.7,0.1,2.3-0.5
			c18-7.1,37-10.4,57.6-9.8l16.1-63c-5.4,1.5-10.9,3.1-16.5,4.8c-12.1,3.7-24.1,7.8-36,12.1l-12.5,48.7l-10.3-39.9
			c-6.1,2.5-12.2,5.1-18.2,7.8C111.1,135.4,110.9,135.8,110.9,135.9z" />
            <path class="st0" d="M91.9,89.3c-1.9,1-2.1,1.1-1,3.4c2.3,4.9,4.5,10,6.7,14.9c2.1,4.7,4.2,9.5,6.4,14.1c0.5,1,0.9,2,1.3,2.8
			c0.8,1.7,1.5,3.3,1.9,4c0.6-0.2,1.5-0.7,2.3-1.1c1.1-0.5,2.4-1.2,4.1-1.9c5.2-2.2,10.4-4.4,15.6-6.5l-11.6-45.2
			C109.5,79.5,100.9,84.7,91.9,89.3z" />
            <path class="st0"
                d="M268.2,189.1c-0.5-0.2-1.1-0.4-1.7-0.6c-4.1-1.6-8.2-3-12.2-4.3c-15.2-5-29.4-8.3-43.2-10.2V255h57.1V189.1z" />
            <path class="st0" d="M176.6,29.4l-20.3,79.2c17.2-6.2,87.2-25.3,103.7-28.5c2.7-0.5,5.5-1,8.2-1.4V39.6c-2.9-3.5-5.9-6.9-9-10.2
			H176.6z" />
            <path class="st0" d="M71.6,237.7c-3.5,5.5-6.7,11.3-9.6,17.3h9.6V237.7z" />
            <path class="st0" d="M165.6,173.2c-8.2,1.2-18.2,3.8-28.6,7.4c-2.1,0.7-2.5,1.2-2.5,1.3c0,0-0.1,0.6,1.1,2.7
			c11.2,20.5,22.7,40.4,34.3,59.8l18.5-72.2C180.7,172,173.1,172.3,165.6,173.2z" />
            <path class="st0" d="M16.8,103.9c17.4-1.8,56.4-14.7,56.4-14.7c1.1-0.4,2.1-0.8,3.2-1.3c3.2-1.3,3.4-1.6,2.3-4.2
			c-7.9-19.1-14.6-37.1-20.1-54.3H14.5v74.7C15.3,104,16,104,16.8,103.9z" />
            <path class="st0" d="M128.7,188.3c-1.1-2-1.7-2.5-2-2.6c-0.3-0.1-1.1-0.1-3.1,1c-7.9,4.4-15.1,9.5-21.7,15.1l13.6,53.2h51.4
			C153.2,232.4,140.5,210.3,128.7,188.3z" />
        </g>
    </g>
</svg>