<?xml version="1.0" encoding="utf-8"?>
<!-- Generator: Adobe Illustrator 19.2.1, SVG Export Plug-In . SVG Version: 6.00 Build 0)  -->
<svg version="1.1" id="Layer_1" xmlns="http://www.w3.org/2000/svg" xmlns:xlink="http://www.w3.org/1999/xlink" x="0px" y="0px"
	 viewBox="0 0 283.5 283.5" style="enable-background:new 0 0 283.5 283.5;" xml:space="preserve">
<style type="text/css">
	.st0{fill:#ff238a;}
</style>
<g>
	<polygon points="186.5,276.7 99.2,148.7 99.2,276.7 11.9,276.7 11.9,6.2 95.8,6.2 183.6,135.2 183.6,6.2 271.1,6.2 271.1,276.7 	
		"/>
	<g>
		<path class="st0" d="M139.7,149.9c0,0-0.1-0.1-0.1-0.1l-5.1-4.7c-9-8.3-18.1-16.6-27.1-24.9c-0.1-0.1-0.2-0.2-0.3-0.3l-1,1
			c-0.6,0.6-1.3,1.3-1.9,2c-3,3.1-5.9,6.2-8.8,9.4l27.6,40.5c4.6-7.7,10.1-15.2,16.5-22.5C139.6,150.1,139.7,150,139.7,149.9z"/>
		<path class="st0" d="M145.5,143.7c0.1,0,0.7-0.1,2-1.2c6.9-6.2,14.4-11.7,22.4-16.5l-27.2-39.9c-9.6,8.4-19,17-28,25.9
			c-1.5,1.5-1.6,2-1.6,2c0,0,0.1,0.5,1.3,1.5c10.3,9.2,20.6,18.8,29.3,26.9C144.8,143.6,145.4,143.7,145.5,143.7z"/>
		<path class="st0" d="M93,134.7C78,151.2,64,168.2,51.5,185.6c-13.2,18.3-24.2,35.9-33.5,53.2v31.8h75V134.7z"/>
		<path class="st0" d="M63.1,80.6c2.6-2.4,2.6-2.7,0.7-4.8C46.2,56.9,31.1,39,18,21.5v92.3C33.2,105.5,48.4,94.4,63.1,80.6z"/>
		<path class="st0" d="M67.1,67.5l0.1,0.1c1.7,1.9,3.4,3.8,4.2,4.2c0.8-0.5,2.5-2.5,4.2-4.4c10.7-12.3,19.8-25.5,27.3-39.8
			L92.5,12.3H21.3C34.9,30.6,50,48.8,67.1,67.5z"/>
		<path class="st0" d="M99,116.6c1.6-1.6,1.7-2.3,1.7-2.5c0-0.2-0.1-0.8-1.6-2.2C90.6,103.7,82,95,73.4,85.9c-1.5-1.6-2-1.6-2.1-1.6
			c-0.1,0-0.6,0-2.1,1.5c-14,13.7-30.3,25.8-48.4,35.9c-0.9,0.5-1.9,1-2.8,1.5V222c1.2-2.1,2.5-4.3,3.9-6.5
			C43.1,180.5,69,147.2,99,116.6z"/>
		<path class="st0" d="M189.7,116.1c9.4-3.9,19.6-7,30.5-9.4c14.2-3.1,29-5,44.7-5.7V12.3H244c-17.9,10.6-35.8,22.5-54.3,36.1V116.1
			z"/>
		<path class="st0" d="M264.9,250c-43-31.1-81-61.3-116.1-92.3c-1.7-1.5-2.5-1.8-2.9-1.8c-0.3,0-1.1,0.3-2.6,2.1
			c-5.9,7-11,14.3-15.3,21.9l61.7,90.5h74.1c0.4-0.3,0.7-0.7,1.1-1V250z"/>
		<path class="st0" d="M78.7,79.9c4,3.9,7.9,7.9,11.7,11.8c3.6,3.7,7.4,7.5,11.1,11.2c0.8,0.8,1.6,1.6,2.2,2.2
			c1.3,1.3,2.6,2.6,3.3,3.1c0.5-0.4,1.2-1.2,1.9-1.9c0.8-0.9,1.9-2,3.2-3.3c8.4-8.2,17.2-16.1,26-23.8l-30-44.1
			c-8.2,14.7-18,28.4-29.6,41.1C77,78,76.9,78.2,78.7,79.9z"/>
		<path class="st0" d="M189.7,12.3v26.1c12.6-9.1,25.5-17.8,38.7-26.1H189.7z"/>
		<path class="st0" d="M153.9,151.7c36.9,31.9,74.2,61.5,111,88.1V109.2c-28.8,1.3-53.1,6.4-75.2,15.8v30.2l-15.3-22.5
			c-6.4,3.9-13.4,8.9-20.5,14.7c-1.8,1.5-1.9,2-1.9,2.1C151.9,149.5,152.1,150.1,153.9,151.7z"/>
	</g>
</g>
</svg>
