<?xml version="1.0" encoding="utf-8"?>
<!-- Generator: Adobe Illustrator 19.2.1, SVG Export Plug-In . SVG Version: 6.00 Build 0)  -->
<svg version="1.1" id="Layer_1" xmlns="http://www.w3.org/2000/svg" xmlns:xlink="http://www.w3.org/1999/xlink" x="0px"
    y="0px" viewBox="0 0 283.5 283.5" style="enable-background:new 0 0 283.5 283.5;" xml:space="preserve">
    <style type="text/css">
        .st0 {
            fill: #1171d2;
        }

        .st1 {
            fill: #111111;
        }
    </style>
    <g>
        <path class="st1" d="M22.5,281.1V3.2H165c31.2,0,55.1,7.7,71,22.9c16,15.3,24.1,37.1,24.1,64.8c0,28.5-8.8,51.1-26.2,67.4
		c-17.2,16.1-43.5,24.3-78,24.3h-38.6v98.4H22.5z M131.2,116.3c14,0,24.1-2.3,29.2-6.7c5-4.3,7.4-9.6,7.4-16.3
		c0-6.7-2.1-12.2-6.6-16.8c-2.9-3.1-10-6.7-26.7-6.7h-17v46.5H131.2z" />
        <g>
            <path class="st0" d="M106.9,159.8c0,0-0.1-0.1-0.1-0.1l-5.3-4.8c-9.3-8.5-18.6-17-27.8-25.6c-0.1-0.1-0.2-0.2-0.4-0.3l-1,1
			c-0.7,0.7-1.3,1.3-2,2c-14.9,15.4-28.8,31.3-41.5,47.6v95.1h36.9c0.6-37.6,9.3-78.8,40.9-114.7C106.7,160,106.8,159.9,106.9,159.8
			z" />
            <path class="st0" d="M34.4,94c-1.8,1.8-3.7,3.4-5.6,5.1v67.2c11.3-14,23.4-27.6,36.2-40.7c1.6-1.7,1.8-2.4,1.8-2.5
			c0-0.2-0.1-0.8-1.7-2.3c-8.7-8.4-17.5-17.3-26.4-26.6c-1.5-1.6-2.1-1.6-2.1-1.6C36.5,92.5,35.9,92.5,34.4,94z" />
            <path class="st0" d="M28.8,9.6v61.8c1.1,1.3,2.3,2.5,3.4,3.8l0.1,0.1c1.7,1.9,3.5,3.9,4.3,4.3c0.8-0.5,2.6-2.6,4.3-4.6
			C57.9,55.6,70.9,33.9,80.1,9.6H28.8z" />
            <path class="st0"
                d="M44.1,87.9c4.1,4,8.1,8.2,12,12.2c3.7,3.8,7.6,7.8,11.4,11.5c0.9,0.9,1.6,1.6,2.3,2.3
			c1.4,1.4,2.6,2.6,3.4,3.2c0.5-0.4,1.2-1.2,1.9-1.9c0.9-0.9,2-2.1,3.3-3.4c10.5-10.2,21.5-20,32.7-29.6V63.5h22.9
			c22.2-17.4,45.5-33.7,69.8-48.7c-11.1-3.5-24-5.3-38.8-5.3h-76C78.9,37.6,64,62.3,43.9,84.3C42.4,86,42.3,86.1,44.1,87.9z" />
            <path class="st0" d="M229.7,153.8c10.3-9.6,17.3-21.7,21-36.1c-4.4,0-8.8,0.1-13,0.2c-35.7,1.4-64.7,8.3-91,21.7
			c-7.6,4.2-16.4,10.4-25.3,17.7c-1.8,1.5-2,2.1-2,2.1c0,0,0.1,0.6,2,2.3c5.7,5,11.5,9.9,17.3,14.7H156
			C189.1,176.4,213.6,168.9,229.7,153.8z" />
            <path class="st0" d="M81.1,120.9c-1.5,1.5-1.6,2-1.6,2.1c0,0,0.1,0.5,1.3,1.6c10.6,9.5,21.2,19.3,30.1,27.7
			c1.2,1.1,1.7,1.2,1.8,1.2c0.1,0,0.7-0.1,2-1.3c20.1-18.1,44.5-30.2,74.8-36.8c19.2-4.2,39.3-6.2,61.5-6.2c0.5,0,0.9,0,1.4,0
			c0.9-5.8,1.4-11.8,1.4-18.3c0-26.1-7.4-46.1-22.2-60.3c-5.1-4.9-11.2-8.9-18.1-12c-22.1,13.1-44.1,28.1-67.1,45.6
			c8.8,1.2,15.2,3.8,19.2,7.9c5.5,5.8,8.3,12.8,8.3,21.2c0,8.6-3.2,15.6-9.6,21.1c-6.4,5.5-17.5,8.2-33.3,8.2h-20.1V93.2
			C100.8,102.2,90.8,111.4,81.1,120.9z" />
            <path class="st0" d="M111.1,176.4H126c-3.3-2.8-6.6-5.7-9.8-8.5c-1.8-1.6-2.6-1.8-3-1.8c-0.3,0-1.1,0.3-2.7,2.2
			C99.6,181,91.3,195,85.9,209.9c-7.4,20.3-11.4,41.8-11.9,65h37.2V176.4z" />
        </g>
    </g>
</svg>