<?xml version="1.0" encoding="utf-8"?>
<!-- Generator: Adobe Illustrator 19.2.1, SVG Export Plug-In . SVG Version: 6.00 Build 0)  -->
<svg version="1.1" id="Layer_1" xmlns="http://www.w3.org/2000/svg" xmlns:xlink="http://www.w3.org/1999/xlink" x="0px" y="0px"
	 viewBox="0 0 283.5 283.5" style="enable-background:new 0 0 283.5 283.5;" xml:space="preserve">
<style type="text/css">
	.st0{fill:#F4792A;}
</style>
<g>
	<path d="M144.3,267.4c-41.4,0-69.5-8-86-24.4c-16.1-16.1-25.3-36.7-27.4-61.4l-0.5-5.6l79.1-4.9l0.7,5.1c1.3,10,4,17.7,7.9,22.7
		c6.3,8.1,15.3,12,27.3,12c8.8,0,15.6-2,20.1-5.9c4.3-3.7,6.4-7.8,6.4-12.5c0-4.4-2-8.4-6.1-12.1c-3.1-2.8-11.6-7.2-34.2-12.2
		c-32.7-7.4-55.5-17-69.8-29.4c-14.7-12.8-22.2-29.2-22.2-49c0-13,3.8-25.4,11.3-36.8c7.5-11.5,18.8-20.6,33.6-27.1
		c14.5-6.4,34.5-9.6,59.3-9.6c30.7,0,54.6,5.9,71.1,17.6c16.8,11.9,26.9,30.9,30.1,56.5l0.7,5.8l-78.5,4.6l-0.8-4.9
		c-1.6-9.1-4.7-15.6-9.4-19.5c-4.7-3.9-11.6-5.9-20.3-5.9c-7,0-12.1,1.4-15.3,4c-3,2.5-4.4,5.2-4.4,8.7c0,1.3,0.3,3.3,3.3,5.8
		c1.3,1.2,5.8,4.1,21.6,7.4c32.2,6.9,54.7,13.8,68.8,21c14.4,7.4,25.2,16.7,31.8,27.8c6.7,11.1,10.1,23.6,10.1,37.2
		c0,15.9-4.5,30.8-13.3,44.2c-8.8,13.4-21.2,23.7-36.9,30.6C187,264,167.4,267.4,144.3,267.4z"/>
	<g>
		<path class="st0" d="M116.7,123.4c-8.8-5.8-17.9-12-27-18.6c-1.6-1.1-2-1.1-2.1-1.1c-0.1,0-0.6,0.1-1.6,1.7
			c-6.6,9.5-14.3,18.5-22.8,27c0.7,0.7,1.4,1.4,2.2,2.1c8.4,7.3,20.3,13.8,35.8,19.3c5.1-8.8,10.5-17.6,16.3-26.2
			c1.1-1.7,1.1-2.3,1.1-2.5C118.5,124.9,118.3,124.4,116.7,123.4z"/>
		<path class="st0" d="M125.2,129.2l-0.7,1c-0.5,0.7-0.9,1.4-1.4,2.1c-5.2,7.9-10,15.9-14.7,23.9c7.4,2.4,15.5,4.6,24.3,6.5
			c6.8,1.5,12.7,3,17.8,4.6c2.4-5.6,5.2-11.3,8.5-16.9c0.1-0.1,0.1-0.2,0.2-0.3c0,0-0.1,0-0.1-0.1l-5.3-3.3
			c-9.4-5.8-18.8-11.6-28.1-17.4C125.4,129.3,125.3,129.2,125.2,129.2z"/>
		<path class="st0" d="M129.5,123c0,0,0.2,0.4,1.4,1.1c10.7,6.4,21.4,13.1,30.5,18.9c1.2,0.8,1.7,0.8,1.8,0.8c0.1,0,0.6-0.2,1.5-1.4
			c7.7-10.2,16.9-19,27.5-26.7c-12.4-4.4-28.5-8.8-48.2-13.1c-4.6,6.1-9.1,12.2-13.4,18.5C129.5,122.5,129.5,122.9,129.5,123z"/>
		<path class="st0" d="M79.5,97.4C68,89,57.4,80.8,47.6,72.6c-1.7,5.5-2.5,11.2-2.5,17c0,14.6,4.4,27,13.1,37.5
			c7.4-7.5,14.6-15.9,21.5-25.3C81.6,99.3,81.6,99,79.5,97.4z"/>
		<path class="st0" d="M88.1,177.8l-51.7,3.2c2,23.4,10.6,42.7,25.7,57.9c1.2-3.6,2.5-7.2,3.9-11C72.3,211.1,79.7,194.3,88.1,177.8z
			"/>
		<path class="st0" d="M164.6,76.4c3.5,4.6,5.9,10.8,7.2,18.5l67.6-4c-3-24.1-12.2-41.6-27.8-52.7c-2.4-1.7-5-3.2-7.7-4.7
			c-8.9,8.8-17.8,18.2-26.8,28.2C172.9,66.6,168.7,71.5,164.6,76.4z"/>
		<path class="st0" d="M93.4,98.6c4.2,2.8,8.3,5.7,12.3,8.5c3.8,2.7,7.8,5.4,11.7,8.1c0.9,0.6,1.7,1.1,2.3,1.6
			c1.4,0.9,2.7,1.8,3.4,2.2c0.3-0.4,0.9-1.2,1.3-1.9c0.6-0.9,1.3-2.1,2.3-3.5c3.1-4.3,6.2-8.6,9.3-12.9c-10-2.3-16.5-4.9-19.4-7.5
			c-3.5-3-5.2-6.3-5.2-10c0-5.1,2.1-9.4,6.3-12.9c4.2-3.5,10.5-5.3,18.9-5.3c9.5,0,17.1,2.1,22.7,6.3c11.9-14.1,24.4-27.8,37.5-40.9
			c-14.1-5.7-31.7-8.6-53.1-8.6c-8.9,0-17,0.4-24.5,1.2c-4.1,26.1-12.9,50.1-26.7,72.6C91.5,97.2,91.5,97.4,93.4,98.6z"/>
		<path class="st0" d="M55.5,55.9c-2,3.1-3.7,6.3-5.1,9.5C60,73.4,70.1,81.5,81,89.6l0.1,0.1c1.8,1.3,3.7,2.7,4.4,3
			c0.6-0.6,1.8-2.6,3-4.6c11.6-19.9,19.3-41.1,23.1-64.1c-9.6,1.5-18,3.8-25,6.9C72.8,36.9,62.4,45.2,55.5,55.9z"/>
		<path class="st0" d="M234.7,223.5c5.4-8.2,8.9-16.8,10.8-26c-27.2-13.7-52.7-27.6-77.1-42c-1.8-1.1-2.5-1.1-2.8-1.1
			c-0.3,0.1-0.9,0.4-2,2.3c-2.4,4.2-4.5,8.5-6.4,12.9c5.6,2.1,9.7,4.3,12.2,6.6c5.3,4.8,7.9,10.1,7.9,16.2c0,6.3-2.8,11.9-8.3,16.7
			c-5.2,4.5-12.5,6.9-21.8,7.2c-0.7,14.8,0.6,29.9,3.8,45.6c19.5-0.6,35.9-3.8,49.1-9.6C215,245.6,226.5,236.1,234.7,223.5z"/>
		<path class="st0" d="M139.7,215.9c-11-1.2-19.7-5.7-26-13.8c-4.5-5.8-7.6-14.3-9-25.3l-8,0.5c-3.3,6.4-6.5,12.8-9.5,19.2
			c-7.7,16.6-14,32.4-19,47.6c15.9,11.7,41,17.6,75.5,17.7C140.8,247.4,139,231.9,139.7,215.9z"/>
		<path class="st0" d="M237.8,148c-6.2-10.2-16.1-18.8-29.6-25.7c-2.3-1.2-4.9-2.3-7.6-3.5c-3.6,2.4-7.1,4.8-10.5,7.4
			c-5.9,4.9-12.4,11.6-18.9,19.4c-1.3,1.6-1.3,2.1-1.3,2.2c0,0,0.2,0.5,2.1,1.6c25,14.5,50,28,74.8,40.5c0.2-2.5,0.4-5,0.4-7.5
			C247.1,169.7,244,158.2,237.8,148z"/>
	</g>
</g>
</svg>
