<?xml version="1.0" encoding="utf-8"?>
<!-- Generator: Adobe Illustrator 19.2.1, SVG Export Plug-In . SVG Version: 6.00 Build 0)  -->
<svg version="1.1" id="Layer_1" xmlns="http://www.w3.org/2000/svg" xmlns:xlink="http://www.w3.org/1999/xlink" x="0px"
    y="0px" viewBox="0 0 283.5 283.5" style="enable-background:new 0 0 283.5 283.5;" xml:space="preserve">
    <style type="text/css">
        .st0 {
            fill: #018eac;
        }
    </style>
    <g>
        <polygon points="96.3,275.8 96.3,83.2 15.7,83.2 15.7,7.8 268.1,7.8 268.1,83.2 187.5,83.2 187.5,275.8 	" />
        <g>
            <path class="st0" d="M188.6,30.5c-17,11.4-35,20.3-53.5,26.5c-2,0.7-2.3,1.1-2.3,1.2c0,0-0.2,0.5,0.5,2.5
			c4.1,11.6,7.9,23.2,11.3,34.3c0.6,2,1.1,2.4,1.2,2.4c0.2,0.1,0.8,0.3,3-0.4c10.9-3.4,21.8-6.4,32.7-9.1v-11h57.3
			c7.8-1.1,15.5-1.9,23.3-2.6V13.9h-51.3C203.7,19.7,196.4,25.3,188.6,30.5z" />
            <path class="st0"
                d="M159.8,147.9c0,0.1,0,0.1,0.1,0.2c0.1,0,0.2,0,0.3-0.1c7.2-1.8,14.3-3.1,21.3-3.9V96.4
			c-9.8,2.4-19.6,5.1-29.4,8.1c-0.9,0.3-1.7,0.6-2.6,0.8l-1.3,0.4c0,0.1,0.1,0.3,0.1,0.4c3.3,11.7,6.5,23.4,9.7,35.1L159.8,147.9z" />
            <path class="st0"
                d="M151.8,150.3c0.1-0.1,0.2-0.6-0.2-2.1c-3.2-11.3-7.1-24.7-10.5-38c-0.4-1.5-0.8-1.8-0.8-1.8
			c-0.1,0-0.5-0.2-2.5,0.5c-11.8,3.9-23.6,8.3-35.3,13v59.6c14.4-13.4,30-23.3,47.4-29.9C151.4,150.9,151.7,150.5,151.8,150.3z" />
            <path class="st0" d="M128.7,47.6c1,2.7,1.3,2.8,4.6,1.6c21.3-7.7,39.9-17.3,55.2-28.7c3.1-2.1,6.1-4.4,9.1-6.6h-82
			C120,24.6,124.4,35.8,128.7,47.6z" />
            <path class="st0" d="M155,161.4c-0.6-2.4-1.1-2.7-1.1-2.7c0,0-0.6-0.2-2.7,0.7c-10.2,4.5-19.3,9.3-26.3,14
			c-8,5.8-15.5,12.3-22.5,19.5v76.8h75.4C171.6,234.3,164,198.1,155,161.4z" />
            <path class="st0" d="M115.9,54.3c2.5-0.6,5-1.2,5.8-1.7c-0.1-0.9-1-3.3-1.8-5.6l-0.1-0.2c-4.2-11.4-8.6-22.3-13.1-32.9h-85v41.9
			C54.1,62.5,85.2,62,115.9,54.3z" />
            <path class="st0" d="M165.4,154.9c-2.3,0.5-2.9,1.1-3,1.4c-0.1,0.3-0.3,1.1,0.3,3.3c7,27.3,13.2,55.4,18.8,84.9v-92.4
			C176.1,152.7,170.8,153.6,165.4,154.9z" />
            <path class="st0" d="M102.4,77.1v36.2c9.5-3.7,19.1-7.3,28.7-10.6c1.7-0.6,3.2-1,4.4-1.4c0.9-0.3,1.9-0.6,2.5-0.8
			c-0.2-0.9-0.7-2.5-1.3-4.3c-0.3-0.9-0.6-1.9-1-3c-1.6-5-3.3-10-4.9-14.8c-1.7-5.1-3.5-10.4-5.2-15.7c-0.7-2.4-0.9-2.4-3-1.8
			C89.5,69.9,56.3,71,21.8,64.1v13H102.4z" />
        </g>
    </g>
</svg>